<svg width="24" height="24" viewBox="0 0 24 24" fill="none" xmlns="http://www.w3.org/2000/svg">
<g clip-path="url(#clip0)">
<path d="M24 12C24 18.6289 18.627 24 12 24C5.37305 24 0 18.6289 0 12C0 5.37498 5.37305 0 12 0C18.627 0 24 5.37498 24 12ZM12.322 3.96774C9.68506 3.96774 8.00323 5.07856 6.68255 7.05281C6.51145 7.30858 6.56869 7.65353 6.81392 7.83948L8.4929 9.11255C8.74476 9.30353 9.1036 9.2581 9.29927 9.00987C10.1637 7.91352 10.7564 7.27776 12.072 7.27776C13.0605 7.27776 14.2832 7.91395 14.2832 8.8725C14.2832 9.59714 13.685 9.96929 12.709 10.5165C11.5707 11.1546 10.0645 11.9488 10.0645 13.9355V14.129C10.0645 14.4497 10.3245 14.7097 10.6452 14.7097H13.3548C13.6755 14.7097 13.9355 14.4497 13.9355 14.129V14.0645C13.9355 12.6873 17.9606 12.63 17.9606 8.90322C17.9606 6.09668 15.0494 3.96774 12.322 3.96774ZM12 15.9677C10.7727 15.9677 9.77419 16.9662 9.77419 18.1935C9.77419 19.4208 10.7727 20.4194 12 20.4194C13.2273 20.4194 14.2258 19.4208 14.2258 18.1935C14.2258 16.9662 13.2273 15.9677 12 15.9677Z" fill="#004E64"/>
</g>
<defs>
<clipPath id="clip0">
<rect width="24" height="24" fill="white"/>
</clipPath>
</defs>
</svg>
