<svg width="24" height="24" viewBox="0 0 24 24" fill="none" xmlns="http://www.w3.org/2000/svg">
<path d="M18.8571 7.5V6C18.8571 2.69156 15.781 0 12 0C8.21893 0 5.14286 2.69156 5.14286 6V7.5H0V20.25C0 22.3211 1.91877 24 4.28571 24H19.7143C22.0812 24 24 22.3211 24 20.25V7.5H18.8571ZM8.57143 6C8.57143 4.34578 10.1095 3 12 3C13.8905 3 15.4286 4.34578 15.4286 6V7.5H8.57143V6ZM17.1429 11.625C16.4328 11.625 15.8571 11.1213 15.8571 10.5C15.8571 9.87867 16.4328 9.375 17.1429 9.375C17.8529 9.375 18.4286 9.87867 18.4286 10.5C18.4286 11.1213 17.8529 11.625 17.1429 11.625ZM6.85714 11.625C6.14705 11.625 5.57143 11.1213 5.57143 10.5C5.57143 9.87867 6.14705 9.375 6.85714 9.375C7.56723 9.375 8.14286 9.87867 8.14286 10.5C8.14286 11.1213 7.56723 11.625 6.85714 11.625Z" fill="#004E64"/>
</svg>
