<svg width="2318" height="1240" viewBox="0 0 2318 1240" fill="none" xmlns="http://www.w3.org/2000/svg">
<path d="M1142 500.001C1096.44 544.633 1034.05 572.151 965.222 572.151C896.396 572.151 833.999 544.633 788.44 500.001C833.999 455.369 896.396 427.851 965.222 427.851C1034.05 427.851 1096.44 455.369 1142 500.001Z" fill="#5D9BAC" stroke="white" stroke-width="7"/>
<path d="M1495.57 500.001C1450.01 544.633 1387.61 572.151 1318.79 572.151C1249.96 572.151 1187.56 544.633 1142 500.001C1187.56 455.369 1249.96 427.851 1318.79 427.851C1387.61 427.851 1450.01 455.369 1495.57 500.001Z" fill="#408E8D" stroke="white" stroke-width="7"/>
<path d="M1142 500C1186.64 454.444 1214.16 392.052 1214.16 323.232C1214.16 254.411 1186.64 192.02 1142 146.464C1097.37 192.02 1069.85 254.411 1069.85 323.232C1069.85 392.052 1097.37 454.444 1142 500Z" fill="#FCE61E" stroke="white" stroke-width="7"/>
<path d="M1142 853.535C1186.64 807.979 1214.16 745.588 1214.16 676.767C1214.16 607.947 1186.64 545.555 1142 499.999C1097.37 545.555 1069.85 607.947 1069.85 676.767C1069.85 745.588 1097.37 807.979 1142 853.535Z" fill="#FFB930" stroke="white" stroke-width="7"/>
<path d="M1142 499.999C1141.34 563.771 1116.68 627.347 1068.02 676.011C1019.35 724.674 955.768 749.334 891.991 749.987C892.645 686.215 917.305 622.638 965.973 573.975C1014.64 525.311 1078.22 500.652 1142 499.999Z" fill="#5D9BAC" stroke="white" stroke-width="7"/>
<path d="M1392.01 250.014C1391.35 313.786 1366.69 377.362 1318.03 426.026C1269.36 474.689 1205.78 499.348 1142 500.001C1142.65 436.23 1167.32 372.653 1215.98 323.99C1264.65 275.326 1328.23 250.667 1392.01 250.014Z" fill="#408E8D" stroke="white" stroke-width="7"/>
<path d="M1142 500C1141.34 436.228 1116.68 372.651 1068.02 323.988C1019.35 275.324 955.768 250.665 891.991 250.011C892.645 313.784 917.305 377.36 965.973 426.024C1014.64 474.687 1078.22 499.347 1142 500Z" fill="#FCE61E" stroke="white" stroke-width="7"/>
<path d="M1392.01 749.989C1391.35 686.217 1366.69 622.641 1318.03 573.978C1269.36 525.314 1205.78 500.655 1142 500.002C1142.65 563.774 1167.32 627.35 1215.98 676.013C1264.65 724.677 1328.23 749.336 1392.01 749.989Z" fill="#FFB930" stroke="white" stroke-width="7"/>
<path d="M208.529 987.96V1191H152.081V987.96H208.529ZM428.739 1191H372.291L297.123 1077.53V1191H240.675V987.96H297.123L372.291 1102.87V987.96H428.739V1191ZM613.822 987.96V1032.89H559.678V1191H503.23V1032.89H449.662V987.96H613.822ZM691.154 1033.18V1066.3H755.954V1109.21H691.154V1145.78H764.594V1191H634.706V987.96H764.594V1033.18H691.154ZM895.303 1191L854.983 1116.12H848.935V1191H792.487V987.96H881.479C897.799 987.96 911.623 990.84 922.951 996.6C934.279 1002.17 942.823 1009.94 948.583 1019.93C954.343 1029.72 957.223 1040.76 957.223 1053.05C957.223 1066.87 953.383 1079.06 945.703 1089.62C938.215 1099.99 927.175 1107.38 912.583 1111.8L958.375 1191H895.303ZM848.935 1077.53H876.871C884.551 1077.53 890.311 1075.7 894.151 1072.06C897.991 1068.41 899.911 1063.13 899.911 1056.22C899.911 1049.69 897.895 1044.6 893.863 1040.95C890.023 1037.11 884.359 1035.19 876.871 1035.19H848.935V1077.53ZM1080.24 1193.02C1061.23 1193.02 1043.76 1188.6 1027.82 1179.77C1011.89 1170.74 999.214 1158.36 989.806 1142.62C980.59 1126.68 975.982 1108.73 975.982 1088.76C975.982 1068.79 980.59 1050.94 989.806 1035.19C999.214 1019.26 1011.89 1006.87 1027.82 998.04C1043.76 989.208 1061.23 984.792 1080.24 984.792C1099.44 984.792 1116.91 989.208 1132.65 998.04C1148.59 1006.87 1161.17 1019.26 1170.38 1035.19C1179.6 1050.94 1184.21 1068.79 1184.21 1088.76C1184.21 1108.73 1179.6 1126.68 1170.38 1142.62C1161.17 1158.36 1148.59 1170.74 1132.65 1179.77C1116.72 1188.6 1099.25 1193.02 1080.24 1193.02ZM1080.24 1140.6C1094.64 1140.6 1105.97 1135.9 1114.22 1126.49C1122.67 1117.08 1126.89 1104.5 1126.89 1088.76C1126.89 1072.63 1122.67 1059.96 1114.22 1050.74C1105.97 1041.34 1094.64 1036.63 1080.24 1036.63C1065.65 1036.63 1054.22 1041.34 1045.97 1050.74C1037.71 1059.96 1033.58 1072.63 1033.58 1088.76C1033.58 1104.7 1037.71 1117.37 1045.97 1126.78C1054.22 1135.99 1065.65 1140.6 1080.24 1140.6ZM1312.4 1191L1272.08 1116.12H1266.03V1191H1209.58V987.96H1298.57C1314.89 987.96 1328.72 990.84 1340.05 996.6C1351.37 1002.17 1359.92 1009.94 1365.68 1019.93C1371.44 1029.72 1374.32 1040.76 1374.32 1053.05C1374.32 1066.87 1370.48 1079.06 1362.8 1089.62C1355.31 1099.99 1344.27 1107.38 1329.68 1111.8L1375.47 1191H1312.4ZM1266.03 1077.53H1293.97C1301.65 1077.53 1307.41 1075.7 1311.25 1072.06C1315.09 1068.41 1317.01 1063.13 1317.01 1056.22C1317.01 1049.69 1314.99 1044.6 1310.96 1040.95C1307.12 1037.11 1301.45 1035.19 1293.97 1035.19H1266.03V1077.53ZM1456.44 987.96V1191H1399.99V987.96H1456.44ZM1545.03 1033.18V1066.3H1609.83V1109.21H1545.03V1145.78H1618.47V1191H1488.58V987.96H1618.47V1033.18H1545.03ZM1834.43 1191H1777.98L1702.81 1077.53V1191H1646.36V987.96H1702.81L1777.98 1102.87V987.96H1834.43V1191ZM2019.51 987.96V1032.89H1965.37V1191H1908.92V1032.89H1855.35V987.96H2019.51ZM2096.84 1033.18V1066.3H2161.64V1109.21H2096.84V1145.78H2170.28V1191H2040.39V987.96H2170.28V1033.18H2096.84Z" fill="#001014"/>
</svg>
