<?xml version="1.0" encoding="iso-8859-1"?>
<!-- Generator: Adobe Illustrator 18.0.0, SVG Export Plug-In . SVG Version: 6.00 Build 0)  -->
<!DOCTYPE svg PUBLIC "-//W3C//DTD SVG 1.1//EN" "http://www.w3.org/Graphics/SVG/1.1/DTD/svg11.dtd">
<svg version="1.1" id="Capa_1" xmlns="http://www.w3.org/2000/svg" xmlns:xlink="http://www.w3.org/1999/xlink" x="0px" y="0px"
	 viewBox="0 0 297 297" style="enable-background:new 0 0 297 297;" xml:space="preserve">
<path d="M276.449,41.159h10.667c5.458,0,9.884-4.425,9.884-9.884s-4.425-9.884-9.884-9.884h-18.285
	c-4.489,0-8.414,3.025-9.557,7.366l-10.947,41.557H9.884C4.425,70.315,0,74.741,0,80.199v100.235
	c0,19.9,14.568,36.453,33.598,39.575c-9.771,4.745-16.523,14.767-16.523,26.338c0,16.135,13.127,29.262,29.262,29.262
	c16.134,0,29.261-13.127,29.261-29.262c0-11.153-6.274-20.865-15.476-25.801h108.073c-9.202,4.936-15.476,14.649-15.476,25.801
	c0,16.135,13.127,29.262,29.261,29.262c16.135,0,29.262-13.127,29.262-29.262c0-11.153-6.274-20.865-15.477-25.801h2.521
	c18.417,0,34.402-12.463,38.896-30.317L276.449,41.159z M181.979,255.841c-5.235,0-9.494-4.259-9.494-9.495s4.258-9.494,9.494-9.494
	s9.495,4.258,9.495,9.494S187.214,255.841,181.979,255.841z M46.337,255.841c-5.235,0-9.495-4.259-9.495-9.495
	s4.259-9.494,9.495-9.494s9.494,4.258,9.494,9.494S51.572,255.841,46.337,255.841z M218.021,185.369
	c-2.268,9.073-10.383,15.409-19.736,15.409H40.11c-10.45,0-19.075-7.923-20.209-18.075h198.82l-0.67,2.544
	C218.041,185.288,218.03,185.328,218.021,185.369z M223.929,162.936H19.767V90.082H243.12L223.929,162.936z"/>
<g>
</g>
<g>
</g>
<g>
</g>
<g>
</g>
<g>
</g>
<g>
</g>
<g>
</g>
<g>
</g>
<g>
</g>
<g>
</g>
<g>
</g>
<g>
</g>
<g>
</g>
<g>
</g>
<g>
</g>
</svg>
