<?xml version="1.0" encoding="iso-8859-1"?>
<!-- Generator: Adobe Illustrator 19.0.0, SVG Export Plug-In . SVG Version: 6.00 Build 0)  -->
<svg version="1.1" id="Layer_1" xmlns="http://www.w3.org/2000/svg" xmlns:xlink="http://www.w3.org/1999/xlink" x="0px" y="0px"
	 viewBox="0 0 508 508" style="enable-background:new 0 0 508 508;" xml:space="preserve">
<g>
	<circle style="fill:#40596B;" cx="220.717" cy="465.9" r="42.1"/>
	<circle style="fill:#40596B;" cx="381.217" cy="465.9" r="42.1"/>
</g>
<path style="fill:#FFD15C;" d="M323.617,0c-48,0-86.9,38.9-86.9,86.9c0,16.7,4.8,32.3,13,45.5h147.8c8.2-13.3,13-28.8,13-45.5
	C410.517,38.9,371.617,0,323.617,0z"/>
<path style="fill:#F8B64C;" d="M323.617,23.1c-35.2,0-63.8,28.6-63.8,63.8c0,17.9,7.4,34,19.2,45.5h89.2
	c11.8-11.6,19.2-27.7,19.2-45.5C387.417,51.7,358.817,23.1,323.617,23.1z"/>
<path style="fill:#FFD15C;" d="M314.617,107.9c-1.6-2.1-2.7-4.6-3.2-7.5l-14.1,1.5c1.1,7.1,3.6,12.6,7.5,16.5s8.9,6.2,15.2,7v7.1
	h7.8v-7.3c7-1,12.5-3.7,16.4-8.2s5.9-10,5.9-16.5c0-5.8-1.6-10.6-4.7-14.3c-3.1-3.7-9-6.8-17.7-9.1V55.9c3.5,1.5,5.7,4.4,6.5,8.6
	l13.7-1.8c-0.9-5.4-3.1-9.7-6.5-12.9s-7.9-5.2-13.7-5.9v-5.3h-7.8V44c-6.2,0.6-11.2,2.9-14.9,6.9c-3.7,4-5.6,9-5.6,14.9
	c0,5.8,1.6,10.8,4.9,14.9s8.5,7.1,15.5,9.2v22.6C317.917,111.5,316.117,110,314.617,107.9z M327.717,92.1c3.2,0.9,5.6,2.3,7,4
	s2.1,3.8,2.1,6.2c0,2.7-0.8,5-2.5,7s-3.9,3.2-6.6,3.8V92.1z M314.617,70.4c-1.2-1.6-1.7-3.4-1.7-5.3c0-2.1,0.6-4,1.9-5.7
	s3-3,5.1-3.7v18.7C317.517,73.4,315.817,72.1,314.617,70.4z"/>
<path style="fill:#F2F2F2;" d="M494.017,133h-345.3l-16-76c-2.4-11.4-12.5-19.6-24.2-19.6h-82.2c-13.6-0.1-24.7,11-24.7,24.6
	c0,13.7,11.1,24.7,24.7,24.7h62.1l66.9,318.6c2.4,11.4,12.5,19.6,24.2,19.6h244.4c13.7,0,24.7-11.1,24.7-24.7
	c0-13.7-11.1-24.7-24.7-24.7h-224.3l-7.6-36h264c5.9,0,10.9-4.1,12.1-9.8l38-181.9C507.717,140.2,501.917,133,494.017,133z
	 M235.817,281.3c0,12.4-10.1,22.5-22.5,22.5s-22.5-10.1-22.5-22.5v-90.2c0-12.4,10.1-22.5,22.5-22.5s22.5,10.1,22.5,22.5V281.3z
	 M323.517,281.3c0,12.4-10.1,22.5-22.5,22.5s-22.5-10.1-22.5-22.5v-90.2c0-12.4,10.1-22.5,22.5-22.5s22.5,10.1,22.5,22.5V281.3z
	 M411.117,281.3c0,12.4-10.1,22.5-22.5,22.5s-22.5-10.1-22.5-22.5v-90.2c0-12.4,10.1-22.5,22.5-22.5s22.5,10.1,22.5,22.5V281.3z"/>
<g>
</g>
<g>
</g>
<g>
</g>
<g>
</g>
<g>
</g>
<g>
</g>
<g>
</g>
<g>
</g>
<g>
</g>
<g>
</g>
<g>
</g>
<g>
</g>
<g>
</g>
<g>
</g>
<g>
</g>
</svg>
