<svg width="24" height="24" viewBox="0 0 24 24" fill="none" xmlns="http://www.w3.org/2000/svg">
<path d="M22.005 14.1243L23.9747 4.37433C24.1169 3.67036 23.6413 3 22.9996 3H6.63367L6.25175 0.899531C6.15658 0.375984 5.74708 0 5.27204 0H1C0.447708 0 0 0.503672 0 1.125V1.875C0 2.49633 0.447708 3 1 3H3.91179L6.83879 19.0985C6.13854 19.5516 5.66667 20.401 5.66667 21.375C5.66667 22.8247 6.71133 24 8 24C9.28867 24 10.3333 22.8247 10.3333 21.375C10.3333 20.6403 10.0647 19.9765 9.63233 19.5H18.3676C17.9353 19.9765 17.6667 20.6403 17.6667 21.375C17.6667 22.8247 18.7113 24 20 24C21.2887 24 22.3333 22.8247 22.3333 21.375C22.3333 20.3357 21.7963 19.4376 21.0175 19.0123L21.2474 17.8743C21.3896 17.1704 20.914 16.5 20.2723 16.5H9.08821L8.8155 15H21.0299C21.4968 15 21.9015 14.6365 22.005 14.1243Z" fill="white"/>
</svg>
