<?xml version="1.0" encoding="iso-8859-1"?>
<!-- Generator: Adobe Illustrator 18.0.0, SVG Export Plug-In . SVG Version: 6.00 Build 0)  -->
<!DOCTYPE svg PUBLIC "-//W3C//DTD SVG 1.1//EN" "http://www.w3.org/Graphics/SVG/1.1/DTD/svg11.dtd">
<svg version="1.1" id="Capa_1" xmlns="http://www.w3.org/2000/svg" xmlns:xlink="http://www.w3.org/1999/xlink" x="0px" y="0px"
	 viewBox="0 0 297 297" style="enable-background:new 0 0 297 297;" xml:space="preserve">
<g>
	<path d="M286.795,117.84c5.635,0,10.205-4.569,10.205-10.205V80.393c0-5.635-4.569-10.205-10.205-10.205H10.205
		C4.569,70.189,0,74.758,0,80.393v27.243c0,5.635,4.569,10.205,10.205,10.205c16.905,0,30.66,13.754,30.66,30.66
		s-13.754,30.66-30.66,30.66C4.569,179.16,0,183.729,0,189.364v27.243c0,5.635,4.569,10.205,10.205,10.205h276.591
		c5.635,0,10.205-4.569,10.205-10.205v-27.243c0-5.635-4.569-10.205-10.205-10.205c-16.905,0-30.66-13.754-30.66-30.66
		S269.89,117.84,286.795,117.84z M20.409,198.544c23.286-4.742,40.864-25.379,40.864-50.044s-17.578-45.303-40.864-50.044v-7.858
		h181.642v115.804H20.409V198.544z M276.591,198.544v7.858h-54.13V90.598h54.13v7.858c-23.286,4.742-40.864,25.379-40.864,50.044
		S253.305,193.803,276.591,198.544z"/>
	<path d="M129.599,142.038v-18.881c5.019,1.777,8.164,5.267,8.164,8.506c0,3.945,3.198,7.143,7.143,7.143
		c3.945,0,7.143-3.198,7.143-7.143c0-11.444-9.417-20.773-22.45-23.3v-6.294c0-3.945-3.198-7.143-7.143-7.143
		s-7.143,3.198-7.143,7.143v6.294c-13.033,2.527-22.45,11.856-22.45,23.3s9.417,20.773,22.45,23.3v18.881
		c-5.019-1.777-8.164-5.267-8.164-8.506c0-3.945-3.198-7.143-7.143-7.143s-7.143,3.198-7.143,7.143
		c0,11.444,9.417,20.773,22.45,23.3v6.294c0,3.945,3.198,7.143,7.143,7.143s7.143-3.198,7.143-7.143v-6.294
		c13.033-2.527,22.45-11.856,22.45-23.3S142.632,144.565,129.599,142.038z M107.148,131.662c0-3.238,3.144-6.729,8.164-8.506v17.011
		C110.293,138.391,107.148,134.9,107.148,131.662z M129.599,173.843v-17.011c5.019,1.777,8.164,5.267,8.164,8.505
		S134.618,172.067,129.599,173.843z"/>
</g>
<g>
</g>
<g>
</g>
<g>
</g>
<g>
</g>
<g>
</g>
<g>
</g>
<g>
</g>
<g>
</g>
<g>
</g>
<g>
</g>
<g>
</g>
<g>
</g>
<g>
</g>
<g>
</g>
<g>
</g>
</svg>
