<svg width="24" height="24" viewBox="0 0 24 24" fill="none" xmlns="http://www.w3.org/2000/svg">
<g clip-path="url(#clip0)">
<path d="M23.295 4.84225C21.8403 4.23213 20.3846 4 18.9296 4C14.3107 3.99963 9.69221 6.33775 5.07334 6.33775C3.91496 6.33775 2.75734 6.19075 1.59896 5.82325C1.46884 5.782 1.33834 5.7625 1.21084 5.7625C0.565465 5.7625 0.00146484 6.262 0.00146484 6.95537V18.8526C0.00146484 19.3263 0.27259 19.7751 0.707965 19.9574C2.16259 20.5679 3.61834 20.8 5.07334 20.8C9.69221 20.8 14.3111 18.4619 18.93 18.4619C20.0883 18.4619 21.246 18.6089 22.4043 18.9764C22.5345 19.0176 22.665 19.0371 22.7925 19.0371C23.4378 19.0371 24.0018 18.5376 24.0018 17.8443V5.94738C24.0015 5.47338 23.7303 5.02488 23.295 4.84225ZM1.80146 7.75825C2.55596 7.94725 3.34346 8.04212 4.15346 8.09312C3.93296 9.19525 2.96396 10.0259 1.80146 10.0259V7.75825ZM1.80146 18.4458V16.654C3.09034 16.654 4.13321 17.6766 4.19059 18.9565C3.34571 18.8886 2.55596 18.7199 1.80146 18.4458ZM12.0015 16C10.3443 16 9.00146 14.3879 9.00146 12.4C9.00146 10.4118 10.3447 8.8 12.0015 8.8C13.6582 8.8 15.0015 10.4118 15.0015 12.4C15.0015 14.3886 13.6578 16 12.0015 16ZM22.2015 17.0418C21.5445 16.8771 20.8623 16.7849 20.1645 16.7253C20.3846 15.7473 21.1957 15.0048 22.2015 14.8773V17.0418ZM22.2015 8.18762C21.0431 8.041 20.1442 7.07388 20.1086 5.8795C20.8413 5.96088 21.537 6.11313 22.2015 6.35425V8.18762Z" fill="#004E64"/>
</g>
<defs>
<clipPath id="clip0">
<rect width="24" height="24" fill="white"/>
</clipPath>
</defs>
</svg>
