<svg width="24" height="24" viewBox="0 0 24 24" fill="none" xmlns="http://www.w3.org/2000/svg">
<path d="M15.6 15H17.4C17.7 15 18 14.7 18 14.4V8.1C18 7.8 17.7 7.5 17.4 7.5H15.6C15.3 7.5 15 7.8 15 8.1V14.4C15 14.7 15.3 15 15.6 15ZM20.1 15H21.9C22.2 15 22.5 14.7 22.5 14.4V3.6C22.5 3.3 22.2 3 21.9 3H20.1C19.8 3 19.5 3.3 19.5 3.6V14.4C19.5 14.7 19.8 15 20.1 15ZM6.6 15H8.4C8.7 15 9 14.7 9 14.4V11.1C9 10.8 8.7 10.5 8.4 10.5H6.6C6.3 10.5 6 10.8 6 11.1V14.4C6 14.7 6.3 15 6.6 15ZM11.1 15H12.9C13.2 15 13.5 14.7 13.5 14.4V5.1C13.5 4.8 13.2 4.5 12.9 4.5H11.1C10.8 4.5 10.5 4.8 10.5 5.1V14.4C10.5 14.7 10.8 15 11.1 15ZM23.25 18H3V3.75C3 3.33563 2.66438 3 2.25 3H0.75C0.335625 3 0 3.33563 0 3.75V19.5C0 20.3283 0.671719 21 1.5 21H23.25C23.6644 21 24 20.6644 24 20.25V18.75C24 18.3356 23.6644 18 23.25 18Z" fill="#004E64"/>
</svg>
