<svg width="47" height="41" viewBox="0 0 47 41" fill="none" xmlns="http://www.w3.org/2000/svg">
<path d="M42.5938 0H4.40625C1.97363 0 0 1.96188 0 4.38V36.5C0 38.9181 1.97363 40.88 4.40625 40.88H42.5938C45.0264 40.88 47 38.9181 47 36.5V4.38C47 1.96188 45.0264 0 42.5938 0ZM34.9195 26.5081C35.3602 26.9461 35.3602 27.6579 34.9195 28.0959L31.2018 31.7915C30.7611 32.2295 30.0451 32.2295 29.6045 31.7915L23.5 25.6686L17.3955 31.7915C16.9549 32.2295 16.2389 32.2295 15.7982 31.7915L12.0805 28.0959C11.6398 27.6579 11.6398 26.9461 12.0805 26.5081L18.24 20.44L12.0805 14.3719C11.6398 13.9339 11.6398 13.2221 12.0805 12.7841L15.7982 9.0885C16.2389 8.6505 16.9549 8.6505 17.3955 9.0885L23.5 15.2114L29.6045 9.0885C30.0451 8.6505 30.7611 8.6505 31.2018 9.0885L34.9195 12.7841C35.3602 13.2221 35.3602 13.9339 34.9195 14.3719L28.76 20.44L34.9195 26.5081Z" fill="#004E64"/>
</svg>
