<svg width="19" height="19" viewBox="0 0 19 19" fill="none" xmlns="http://www.w3.org/2000/svg">
<path d="M5.33459 5.33459C6.55481 4.11438 6.55481 2.13538 5.33459 0.915161C4.11438 -0.305054 2.13538 -0.305054 0.915161 0.915161C-0.305054 2.13538 -0.305054 4.11438 0.915161 5.33459C2.13586 6.5553 4.11438 6.5553 5.33459 5.33459ZM17.8346 13.4152C16.6144 12.1949 14.6354 12.1949 13.4152 13.4152C12.1949 14.6354 12.1949 16.6144 13.4152 17.8346C14.6354 19.0548 16.6144 19.0548 17.8346 17.8346C19.0553 16.6144 19.0553 14.6359 17.8346 13.4152ZM17.7399 2.11487L16.6354 1.01038C16.025 0.400025 15.0358 0.400025 14.4259 1.01038L1.01038 14.4259C0.400024 15.0363 0.400024 16.0255 1.01038 16.6354L2.11487 17.7399C2.72522 18.3502 3.71448 18.3502 4.32434 17.7399L17.7399 4.32434C18.3502 3.71448 18.3502 2.72522 17.7399 2.11487Z" fill="#004E64"/>
</svg>
