<svg width="24" height="24" viewBox="0 0 24 24" fill="none" xmlns="http://www.w3.org/2000/svg">
<path d="M21.4286 0H2.57143C1.15179 0 0 1.15179 0 2.57143V21.4286C0 22.8482 1.15179 24 2.57143 24H21.4286C22.8482 24 24 22.8482 24 21.4286V2.57143C24 1.15179 22.8482 0 21.4286 0ZM19.7143 13.5C19.7143 13.8536 19.425 14.1429 19.0714 14.1429H14.1429V19.0714C14.1429 19.425 13.8536 19.7143 13.5 19.7143H10.5C10.1464 19.7143 9.85714 19.425 9.85714 19.0714V14.1429H4.92857C4.575 14.1429 4.28571 13.8536 4.28571 13.5V10.5C4.28571 10.1464 4.575 9.85714 4.92857 9.85714H9.85714V4.92857C9.85714 4.575 10.1464 4.28571 10.5 4.28571H13.5C13.8536 4.28571 14.1429 4.575 14.1429 4.92857V9.85714H19.0714C19.425 9.85714 19.7143 10.1464 19.7143 10.5V13.5Z" fill="#004E64"/>
</svg>
