<svg width="24" height="24" viewBox="0 0 24 24" fill="none" xmlns="http://www.w3.org/2000/svg">
<path d="M18.9 16.4996H5.115C4.95 16.4996 4.815 16.6684 4.815 16.8747L4.81125 19.1248C4.81125 19.331 4.94625 19.4998 5.11125 19.4998H18.9C19.065 19.4998 19.2 19.331 19.2 19.1248V16.8747C19.2 16.6684 19.065 16.4996 18.9 16.4996ZM18.9 20.9999H5.10375C4.93875 20.9999 4.80375 21.1686 4.80375 21.3749L4.8 23.625C4.8 23.8312 4.935 24 5.1 24H18.9C19.065 24 19.2 23.8312 19.2 23.625V21.3749C19.2 21.1686 19.065 20.9999 18.9 20.9999ZM18.9 11.9994H5.1225C4.9575 11.9994 4.8225 12.1682 4.8225 12.3744L4.81875 14.6245C4.81875 14.8308 4.95375 14.9996 5.11875 14.9996H18.9C19.065 14.9996 19.2 14.8308 19.2 14.6245V12.3744C19.2 12.1682 19.065 11.9994 18.9 11.9994ZM22.8938 5.48347L12.69 0.172277C12.4707 0.0585428 12.2356 0 11.9981 0C11.7607 0 11.5256 0.0585428 11.3063 0.172277L1.10625 5.48347C0.43875 5.83505 0 6.65072 0 7.56014V23.625C0 23.8312 0.135 24 0.3 24H3.3C3.465 24 3.6 23.8312 3.6 23.625V11.9994C3.6 11.1744 4.1475 10.4993 4.8225 10.4993H19.1775C19.8525 10.4993 20.4 11.1744 20.4 11.9994V23.625C20.4 23.8312 20.535 24 20.7 24H23.7C23.865 24 24 23.8312 24 23.625V7.56014C24 6.65072 23.5613 5.83505 22.8938 5.48347Z" fill="#004E64"/>
</svg>
