<svg width="22" height="26" viewBox="0 0 22 26" fill="none" xmlns="http://www.w3.org/2000/svg">
<path d="M17.132 6.34804C18.4001 6.57785 19.4401 7.26678 20.2531 8.41484C20.9685 9.432 21.4563 10.7115 21.716 12.2532C21.944 13.664 21.927 15.0744 21.6672 16.4852C21.2771 18.8143 20.4968 20.7664 19.3264 22.3412C17.9279 24.2441 16.1726 25.1953 14.0593 25.1953C13.5388 25.1953 12.9704 25.0314 12.3522 24.7032C11.9294 24.4409 11.4582 24.3095 10.9377 24.3095C10.4172 24.3095 9.94647 24.4409 9.52313 24.7032C8.90496 25.0314 8.3366 25.1953 7.8161 25.1953C5.70281 25.1953 3.94744 24.2441 2.549 22.3412C1.37858 20.7664 0.598309 18.8143 0.208172 16.4852C-0.0515943 15.0744 -0.0686841 13.664 0.159344 12.2532C0.41911 10.7115 0.906903 9.432 1.62224 8.41484C2.43523 7.26678 3.47527 6.57785 4.74334 6.34804C5.52361 6.21665 6.59637 6.3318 7.96209 6.6925C9.1325 7.02073 10.1242 7.41441 10.9372 7.87354C11.7502 7.41441 12.7419 7.02073 13.9123 6.6925C15.2785 6.3318 16.3518 6.21665 17.132 6.34804ZM14.4494 4.33044C13.9943 4.75709 13.3923 5.06859 12.6447 5.26543C12.1242 5.42929 11.5558 5.51147 10.9377 5.51147L10.2062 5.46227C10.1413 5.00314 10.1413 4.47807 10.2062 3.88756C10.3366 2.70653 10.7101 1.80452 11.3278 1.18103C11.7829 0.754383 12.385 0.442886 13.1325 0.246048C13.653 0.08218 14.2214 0 14.8395 0L15.571 0.0492096L15.6198 0.787354C15.6198 1.41084 15.5383 1.98462 15.3762 2.50969C15.1813 3.26407 14.8727 3.87132 14.4494 4.33044Z" fill="black"/>
</svg>
