<svg width="21" height="23" viewBox="0 0 21 23" fill="none" xmlns="http://www.w3.org/2000/svg">
<path d="M10.9402 0.015625C7.9177 0.015625 4.51925 0.847267 1.946 2.74184C1.69698 2.89439 1.50167 3.19456 1.59444 3.6965C1.64815 3.94747 1.84346 5.04485 2.09249 5.6452C2.29268 6.14714 2.78585 6.14714 3.0837 5.94538C4.67062 4.84801 7.79563 3.59808 10.5202 3.59808C13.3474 3.59808 13.3962 4.99564 13.3962 7.1953V9.08987C9.12864 9.64594 3.03487 10.7925 1.49678 11.4421C-0.236619 12.2442 0.0124053 16.0432 0.0124053 16.9437C0.0124053 17.8443 0.754595 22.0615 6.11105 22.0615C8.44504 22.0615 11.6628 21.0429 13.5964 19.9898V21.2397C13.5964 21.3874 13.699 21.6432 13.8943 21.6875C14.0456 21.7367 16.3699 21.7859 16.8191 21.7859C17.2683 21.7859 19.8708 21.8007 20.0662 21.7515C20.2664 21.7023 20.3152 21.4513 20.3152 21.3037V6.70813C20.3103 2.7566 17.488 0.015625 10.9402 0.015625V0.015625ZM13.3913 17.1406C12.3464 17.7901 11.0134 18.3413 9.52903 18.3413C6.9509 18.3413 6.65304 16.6928 6.64816 16.1416C6.64816 15.5413 6.50168 14.0404 7.54172 13.5384C8.72824 12.8889 11.2087 12.0917 13.3913 11.8899V17.1406Z" fill="black"/>
</svg>
