<svg width="25" height="21" viewBox="0 0 25 21" fill="none" xmlns="http://www.w3.org/2000/svg">
<path d="M7.79723 8.54693C5.29235 12.0359 2.10387 13.9994 0.682971 12.9364C-0.742811 11.8686 0.136096 8.18278 2.64586 4.69382C5.15074 1.20486 8.33922 -0.758601 9.76012 0.304326C11.181 1.36725 10.3021 5.05797 7.79723 8.54693ZM24.9457 5.72722C21.3422 11.7997 15.5756 14.9639 12.0306 12.7937C10.8099 12.0457 10.014 10.7663 9.63805 9.16205C7.99743 12.3508 5.1068 14.7621 1.62535 15.7168C4.05699 18.6349 7.68493 20.4852 11.7328 20.4852C19.057 20.4852 24.9945 14.4275 24.9945 6.95746C24.9994 6.53918 24.9798 6.13074 24.9457 5.72722Z" fill="black"/>
</svg>
