<svg width="473" height="467" viewBox="0 0 473 467" fill="none" xmlns="http://www.w3.org/2000/svg">
<path d="M369 246.306C367.241 245.111 363.703 242.813 363.703 242.813C335.192 282.396 288.71 308.215 236.308 308.215C183.901 308.215 137.414 282.39 108.904 242.799C108.904 242.799 105.93 244.746 104.453 245.741C41.444 288.182 0 360.187 0 441.87V466.649H472.615V441.87C472.615 360.549 431.538 288.822 369 246.306Z" fill="white"/>
<path d="M236.501 140.501C219.69 157.327 196.666 167.701 171.269 167.701C145.872 167.701 122.848 157.327 106.036 140.501C122.848 123.674 145.872 113.3 171.269 113.3C196.666 113.3 219.69 123.674 236.501 140.501Z" fill="#5D9BAC" stroke="white" stroke-width="15"/>
<path d="M366.967 140.501C350.155 157.327 327.131 167.701 301.734 167.701C276.337 167.701 253.313 157.327 236.502 140.501C253.313 123.674 276.337 113.3 301.734 113.3C327.131 113.3 350.155 123.674 366.967 140.501Z" fill="#408E8D" stroke="white" stroke-width="15"/>
<path d="M236.5 140.5C252.971 123.326 263.126 99.804 263.126 73.8586C263.126 47.9133 252.971 24.3915 236.5 7.21704C220.03 24.3915 209.875 47.9133 209.875 73.8586C209.875 99.804 220.03 123.326 236.5 140.5Z" fill="#FCE61E" stroke="white" stroke-width="15"/>
<path d="M236.501 273.783C252.971 256.609 263.126 233.087 263.126 207.142C263.126 181.196 252.971 157.674 236.501 140.5C220.03 157.674 209.875 181.196 209.875 207.142C209.875 233.087 220.03 256.609 236.501 273.783Z" fill="#FFB930" stroke="white" stroke-width="15"/>
<path d="M236.499 140.5C236.258 164.542 227.158 188.51 209.2 206.856C191.242 225.203 167.78 234.499 144.247 234.745C144.488 210.703 153.588 186.735 171.546 168.389C189.504 150.043 212.965 140.746 236.499 140.5Z" fill="#5D9BAC" stroke="white" stroke-width="15"/>
<path d="M328.753 46.2554C328.512 70.2975 319.412 94.2658 301.454 112.612C283.496 130.958 260.034 140.255 236.501 140.501C236.742 116.459 245.842 92.4905 263.8 74.1444C281.758 55.7982 305.219 46.5017 328.753 46.2554Z" fill="#408E8D" stroke="white" stroke-width="15"/>
<path d="M236.499 140.5C236.258 116.458 227.158 92.4898 209.2 74.1436C191.242 55.7974 167.78 46.5009 144.247 46.2546C144.488 70.2967 153.588 94.2651 171.546 112.611C189.504 130.958 212.965 140.254 236.499 140.5Z" fill="#FCE61E" stroke="white" stroke-width="15"/>
<path d="M328.753 234.746C328.512 210.704 319.412 186.736 301.454 168.39C283.496 150.044 260.034 140.747 236.5 140.501C236.742 164.543 245.841 188.511 263.8 206.858C281.758 225.204 305.219 234.5 328.753 234.746Z" fill="#FFB930" stroke="white" stroke-width="15"/>
</svg>
