<svg width="2246" height="1185" viewBox="0 0 2246 1185" fill="none" xmlns="http://www.w3.org/2000/svg">
<path d="M172.529 932.96V1136H116.081V932.96H172.529ZM392.739 1136H336.291L261.123 1022.53V1136H204.675V932.96H261.123L336.291 1047.87V932.96H392.739V1136ZM577.822 932.96V977.888H523.678V1136H467.23V977.888H413.662V932.96H577.822ZM655.154 978.176V1011.3H719.954V1054.21H655.154V1090.78H728.594V1136H598.706V932.96H728.594V978.176H655.154ZM859.303 1136L818.983 1061.12H812.935V1136H756.487V932.96H845.479C861.799 932.96 875.623 935.84 886.951 941.6C898.279 947.168 906.823 954.944 912.583 964.928C918.343 974.72 921.223 985.76 921.223 998.048C921.223 1011.87 917.383 1024.06 909.703 1034.62C902.215 1044.99 891.175 1052.38 876.583 1056.8L922.375 1136H859.303ZM812.935 1022.53H840.871C848.551 1022.53 854.311 1020.7 858.151 1017.06C861.991 1013.41 863.911 1008.13 863.911 1001.22C863.911 994.688 861.895 989.6 857.863 985.952C854.023 982.112 848.359 980.192 840.871 980.192H812.935V1022.53ZM1044.24 1138.02C1025.23 1138.02 1007.76 1133.6 991.822 1124.77C975.886 1115.74 963.214 1103.36 953.806 1087.62C944.59 1071.68 939.982 1053.73 939.982 1033.76C939.982 1013.79 944.59 995.936 953.806 980.192C963.214 964.256 975.886 951.872 991.822 943.04C1007.76 934.208 1025.23 929.792 1044.24 929.792C1063.44 929.792 1080.91 934.208 1096.65 943.04C1112.59 951.872 1125.17 964.256 1134.38 980.192C1143.6 995.936 1148.21 1013.79 1148.21 1033.76C1148.21 1053.73 1143.6 1071.68 1134.38 1087.62C1125.17 1103.36 1112.59 1115.74 1096.65 1124.77C1080.72 1133.6 1063.25 1138.02 1044.24 1138.02ZM1044.24 1085.6C1058.64 1085.6 1069.97 1080.9 1078.22 1071.49C1086.67 1062.08 1090.89 1049.5 1090.89 1033.76C1090.89 1017.63 1086.67 1004.96 1078.22 995.744C1069.97 986.336 1058.64 981.632 1044.24 981.632C1029.65 981.632 1018.22 986.336 1009.97 995.744C1001.71 1004.96 997.582 1017.63 997.582 1033.76C997.582 1049.7 1001.71 1062.37 1009.97 1071.78C1018.22 1080.99 1029.65 1085.6 1044.24 1085.6ZM1276.4 1136L1236.08 1061.12H1230.03V1136H1173.58V932.96H1262.57C1278.89 932.96 1292.72 935.84 1304.05 941.6C1315.37 947.168 1323.92 954.944 1329.68 964.928C1335.44 974.72 1338.32 985.76 1338.32 998.048C1338.32 1011.87 1334.48 1024.06 1326.8 1034.62C1319.31 1044.99 1308.27 1052.38 1293.68 1056.8L1339.47 1136H1276.4ZM1230.03 1022.53H1257.97C1265.65 1022.53 1271.41 1020.7 1275.25 1017.06C1279.09 1013.41 1281.01 1008.13 1281.01 1001.22C1281.01 994.688 1278.99 989.6 1274.96 985.952C1271.12 982.112 1265.45 980.192 1257.97 980.192H1230.03V1022.53ZM1420.44 932.96V1136H1363.99V932.96H1420.44ZM1509.03 978.176V1011.3H1573.83V1054.21H1509.03V1090.78H1582.47V1136H1452.58V932.96H1582.47V978.176H1509.03ZM1798.43 1136H1741.98L1666.81 1022.53V1136H1610.36V932.96H1666.81L1741.98 1047.87V932.96H1798.43V1136ZM1983.51 932.96V977.888H1929.37V1136H1872.92V977.888H1819.35V932.96H1983.51ZM2060.84 978.176V1011.3H2125.64V1054.21H2060.84V1090.78H2134.28V1136H2004.39V932.96H2134.28V978.176H2060.84Z" fill="white"/>
<path d="M1123.01 500.004C1077.45 544.635 1015.05 572.154 946.229 572.154C877.403 572.154 815.006 544.635 769.447 500.004C815.006 455.372 877.403 427.853 946.229 427.853C1015.05 427.853 1077.45 455.372 1123.01 500.004Z" fill="#5D9BAC" stroke="white" stroke-width="15"/>
<path d="M1476.58 500.003C1431.02 544.635 1368.62 572.154 1299.79 572.154C1230.97 572.154 1168.57 544.635 1123.01 500.003C1168.57 455.372 1230.97 427.853 1299.79 427.853C1368.62 427.853 1431.02 455.372 1476.58 500.003Z" fill="#408E8D" stroke="white" stroke-width="15"/>
<path d="M1123.02 500.004C1167.65 454.448 1195.17 392.056 1195.17 323.236C1195.17 254.415 1167.65 192.023 1123.02 146.468C1078.38 192.023 1050.86 254.415 1050.86 323.236C1050.86 392.056 1078.38 454.448 1123.02 500.004Z" fill="#FCE61E" stroke="white" stroke-width="15"/>
<path d="M1123.02 853.54C1167.65 807.984 1195.17 745.592 1195.17 676.772C1195.17 607.951 1167.65 545.56 1123.02 500.004C1078.38 545.56 1050.86 607.951 1050.86 676.772C1050.86 745.592 1078.38 807.984 1123.02 853.54Z" fill="#FFB930" stroke="white" stroke-width="15"/>
<path d="M1123 500.004C1122.34 563.776 1097.68 627.352 1049.02 676.016C1000.35 724.68 936.768 749.339 872.992 749.992C873.645 686.22 898.306 622.644 946.973 573.98C995.64 525.316 1059.22 500.657 1123 500.004Z" fill="#5D9BAC" stroke="white" stroke-width="15"/>
<path d="M1373.02 250.016C1372.36 313.788 1347.7 377.365 1299.03 426.028C1250.37 474.691 1186.79 499.351 1123.01 500.004C1123.66 436.232 1148.32 372.656 1196.99 323.992C1245.66 275.329 1309.24 250.67 1373.02 250.016Z" fill="#408E8D" stroke="white" stroke-width="15"/>
<path d="M1123 500.004C1122.34 436.232 1097.68 372.656 1049.02 323.992C1000.35 275.328 936.768 250.669 872.992 250.016C873.645 313.788 898.306 377.364 946.973 426.028C995.64 474.692 1059.22 499.351 1123 500.004Z" fill="#FCE61E" stroke="white" stroke-width="15"/>
<path d="M1373.02 749.992C1372.36 686.22 1347.7 622.644 1299.03 573.98C1250.37 525.317 1186.79 500.658 1123.01 500.004C1123.66 563.776 1148.32 627.352 1196.99 676.016C1245.66 724.679 1309.24 749.338 1373.02 749.992Z" fill="#FFB930" stroke="white" stroke-width="15"/>
</svg>
