<svg width="2172" height="1169" viewBox="0 0 2172 1169" fill="none" xmlns="http://www.w3.org/2000/svg">
<path d="M135.529 916.96V1120H79.0811V916.96H135.529ZM355.739 1120H299.291L224.123 1006.53V1120H167.675V916.96H224.123L299.291 1031.87V916.96H355.739V1120ZM540.822 916.96V961.888H486.678V1120H430.23V961.888H376.662V916.96H540.822ZM618.154 962.176V995.296H682.954V1038.21H618.154V1074.78H691.594V1120H561.706V916.96H691.594V962.176H618.154ZM822.303 1120L781.983 1045.12H775.935V1120H719.487V916.96H808.479C824.799 916.96 838.623 919.84 849.951 925.6C861.279 931.168 869.823 938.944 875.583 948.928C881.343 958.72 884.223 969.76 884.223 982.048C884.223 995.872 880.383 1008.06 872.703 1018.62C865.215 1028.99 854.175 1036.38 839.583 1040.8L885.375 1120H822.303ZM775.935 1006.53H803.871C811.551 1006.53 817.311 1004.7 821.151 1001.06C824.991 997.408 826.911 992.128 826.911 985.216C826.911 978.688 824.895 973.6 820.863 969.952C817.023 966.112 811.359 964.192 803.871 964.192H775.935V1006.53ZM1007.24 1122.02C988.23 1122.02 970.758 1117.6 954.822 1108.77C938.886 1099.74 926.214 1087.36 916.806 1071.62C907.59 1055.68 902.982 1037.73 902.982 1017.76C902.982 997.792 907.59 979.936 916.806 964.192C926.214 948.256 938.886 935.872 954.822 927.04C970.758 918.208 988.23 913.792 1007.24 913.792C1026.44 913.792 1043.91 918.208 1059.65 927.04C1075.59 935.872 1088.17 948.256 1097.38 964.192C1106.6 979.936 1111.21 997.792 1111.21 1017.76C1111.21 1037.73 1106.6 1055.68 1097.38 1071.62C1088.17 1087.36 1075.59 1099.74 1059.65 1108.77C1043.72 1117.6 1026.25 1122.02 1007.24 1122.02ZM1007.24 1069.6C1021.64 1069.6 1032.97 1064.9 1041.22 1055.49C1049.67 1046.08 1053.89 1033.5 1053.89 1017.76C1053.89 1001.63 1049.67 988.96 1041.22 979.744C1032.97 970.336 1021.64 965.632 1007.24 965.632C992.646 965.632 981.222 970.336 972.966 979.744C964.71 988.96 960.582 1001.63 960.582 1017.76C960.582 1033.7 964.71 1046.37 972.966 1055.78C981.222 1064.99 992.646 1069.6 1007.24 1069.6ZM1239.4 1120L1199.08 1045.12H1193.03V1120H1136.58V916.96H1225.57C1241.89 916.96 1255.72 919.84 1267.05 925.6C1278.37 931.168 1286.92 938.944 1292.68 948.928C1298.44 958.72 1301.32 969.76 1301.32 982.048C1301.32 995.872 1297.48 1008.06 1289.8 1018.62C1282.31 1028.99 1271.27 1036.38 1256.68 1040.8L1302.47 1120H1239.4ZM1193.03 1006.53H1220.97C1228.65 1006.53 1234.41 1004.7 1238.25 1001.06C1242.09 997.408 1244.01 992.128 1244.01 985.216C1244.01 978.688 1241.99 973.6 1237.96 969.952C1234.12 966.112 1228.45 964.192 1220.97 964.192H1193.03V1006.53ZM1383.44 916.96V1120H1326.99V916.96H1383.44ZM1472.03 962.176V995.296H1536.83V1038.21H1472.03V1074.78H1545.47V1120H1415.58V916.96H1545.47V962.176H1472.03ZM1761.43 1120H1704.98L1629.81 1006.53V1120H1573.36V916.96H1629.81L1704.98 1031.87V916.96H1761.43V1120ZM1946.51 916.96V961.888H1892.37V1120H1835.92V961.888H1782.35V916.96H1946.51ZM2023.84 962.176V995.296H2088.64V1038.21H2023.84V1074.78H2097.28V1120H1967.39V916.96H2097.28V962.176H2023.84Z" fill="#001014"/>
<path d="M1086.01 500.003C1040.45 544.635 978.054 572.154 909.228 572.154C840.402 572.154 778.005 544.635 732.446 500.003C778.005 455.372 840.402 427.853 909.228 427.853C978.054 427.853 1040.45 455.372 1086.01 500.003Z" fill="#5D9BAC" stroke="white" stroke-width="15"/>
<path d="M1439.58 500.003C1394.02 544.635 1331.62 572.154 1262.79 572.154C1193.97 572.154 1131.57 544.635 1086.01 500.003C1131.57 455.372 1193.97 427.853 1262.79 427.853C1331.62 427.853 1394.02 455.372 1439.58 500.003Z" fill="#408E8D" stroke="white" stroke-width="15"/>
<path d="M1086.02 500.004C1130.65 454.448 1158.17 392.056 1158.17 323.236C1158.17 254.415 1130.65 192.023 1086.02 146.468C1041.38 192.023 1013.86 254.415 1013.86 323.236C1013.86 392.056 1041.38 454.448 1086.02 500.004Z" fill="#FCE61E" stroke="white" stroke-width="15"/>
<path d="M1086.02 853.54C1130.65 807.984 1158.17 745.592 1158.17 676.772C1158.17 607.951 1130.65 545.56 1086.02 500.004C1041.38 545.56 1013.86 607.951 1013.86 676.772C1013.86 745.592 1041.38 807.984 1086.02 853.54Z" fill="#FFB930" stroke="white" stroke-width="15"/>
<path d="M1086 500.004C1085.34 563.776 1060.68 627.352 1012.02 676.016C963.349 724.68 899.768 749.339 835.991 749.992C836.644 686.22 861.305 622.644 909.972 573.98C958.639 525.316 1022.22 500.657 1086 500.004Z" fill="#5D9BAC" stroke="white" stroke-width="15"/>
<path d="M1336.01 250.016C1335.36 313.788 1310.7 377.365 1262.03 426.028C1213.37 474.691 1149.78 499.351 1086.01 500.004C1086.66 436.232 1111.32 372.656 1159.99 323.992C1208.66 275.329 1272.24 250.67 1336.01 250.016Z" fill="#408E8D" stroke="white" stroke-width="15"/>
<path d="M1086 500.004C1085.34 436.232 1060.68 372.656 1012.02 323.992C963.349 275.328 899.768 250.669 835.991 250.016C836.644 313.788 861.305 377.364 909.972 426.028C958.639 474.692 1022.22 499.351 1086 500.004Z" fill="#FCE61E" stroke="white" stroke-width="15"/>
<path d="M1336.01 749.992C1335.36 686.22 1310.7 622.644 1262.03 573.98C1213.37 525.317 1149.78 500.658 1086.01 500.004C1086.66 563.776 1111.32 627.352 1159.99 676.016C1208.66 724.679 1272.24 749.338 1336.01 749.992Z" fill="#FFB930" stroke="white" stroke-width="15"/>
</svg>
