<svg width="100%" height="100%" viewBox="0 0 3099 1001" fill="none" xmlns="http://www.w3.org/2000/svg">
<path d="M1025.53 397.96V601H969.081V397.96H1025.53ZM1245.74 601H1189.29L1114.12 487.528V601H1057.68V397.96H1114.12L1189.29 512.872V397.96H1245.74V601ZM1430.82 397.96V442.888H1376.68V601H1320.23V442.888H1266.66V397.96H1430.82ZM1508.15 443.176V476.296H1572.95V519.208H1508.15V555.784H1581.59V601H1451.71V397.96H1581.59V443.176H1508.15ZM1712.3 601L1671.98 526.12H1665.94V601H1609.49V397.96H1698.48C1714.8 397.96 1728.62 400.84 1739.95 406.6C1751.28 412.168 1759.82 419.944 1765.58 429.928C1771.34 439.72 1774.22 450.76 1774.22 463.048C1774.22 476.872 1770.38 489.064 1762.7 499.624C1755.22 509.992 1744.18 517.384 1729.58 521.8L1775.38 601H1712.3ZM1665.94 487.528H1693.87C1701.55 487.528 1707.31 485.704 1711.15 482.056C1714.99 478.408 1716.91 473.128 1716.91 466.216C1716.91 459.688 1714.9 454.6 1710.86 450.952C1707.02 447.112 1701.36 445.192 1693.87 445.192H1665.94V487.528ZM1897.24 603.016C1878.23 603.016 1860.76 598.6 1844.82 589.768C1828.89 580.744 1816.21 568.36 1806.81 552.616C1797.59 536.68 1792.98 518.728 1792.98 498.76C1792.98 478.792 1797.59 460.936 1806.81 445.192C1816.21 429.256 1828.89 416.872 1844.82 408.04C1860.76 399.208 1878.23 394.792 1897.24 394.792C1916.44 394.792 1933.91 399.208 1949.65 408.04C1965.59 416.872 1978.17 429.256 1987.38 445.192C1996.6 460.936 2001.21 478.792 2001.21 498.76C2001.21 518.728 1996.6 536.68 1987.38 552.616C1978.17 568.36 1965.59 580.744 1949.65 589.768C1933.72 598.6 1916.25 603.016 1897.24 603.016ZM1897.24 550.6C1911.64 550.6 1922.97 545.896 1931.22 536.488C1939.67 527.08 1943.89 514.504 1943.89 498.76C1943.89 482.632 1939.67 469.96 1931.22 460.744C1922.97 451.336 1911.64 446.632 1897.24 446.632C1882.65 446.632 1871.22 451.336 1862.97 460.744C1854.71 469.96 1850.58 482.632 1850.58 498.76C1850.58 514.696 1854.71 527.368 1862.97 536.776C1871.22 545.992 1882.65 550.6 1897.24 550.6ZM2129.4 601L2089.08 526.12H2083.03V601H2026.58V397.96H2115.57C2131.89 397.96 2145.72 400.84 2157.05 406.6C2168.37 412.168 2176.92 419.944 2182.68 429.928C2188.44 439.72 2191.32 450.76 2191.32 463.048C2191.32 476.872 2187.48 489.064 2179.8 499.624C2172.31 509.992 2161.27 517.384 2146.68 521.8L2192.47 601H2129.4ZM2083.03 487.528H2110.97C2118.65 487.528 2124.41 485.704 2128.25 482.056C2132.09 478.408 2134.01 473.128 2134.01 466.216C2134.01 459.688 2131.99 454.6 2127.96 450.952C2124.12 447.112 2118.45 445.192 2110.97 445.192H2083.03V487.528ZM2273.44 397.96V601H2216.99V397.96H2273.44ZM2362.03 443.176V476.296H2426.83V519.208H2362.03V555.784H2435.47V601H2305.58V397.96H2435.47V443.176H2362.03ZM2651.43 601H2594.98L2519.81 487.528V601H2463.36V397.96H2519.81L2594.98 512.872V397.96H2651.43V601ZM2836.51 397.96V442.888H2782.37V601H2725.92V442.888H2672.35V397.96H2836.51ZM2913.84 443.176V476.296H2978.64V519.208H2913.84V555.784H2987.28V601H2857.39V397.96H2987.28V443.176H2913.84Z" fill="white"/>
<path d="M500.01 500.004C454.451 544.635 392.054 572.154 323.229 572.154C254.403 572.154 192.006 544.635 146.447 500.004C192.006 455.372 254.403 427.853 323.229 427.853C392.054 427.853 454.451 455.372 500.01 500.004Z" fill="#5D9BAC" stroke="white" stroke-width="15"/>
<path d="M853.577 500.003C808.018 544.635 745.621 572.154 676.795 572.154C607.969 572.154 545.572 544.635 500.013 500.003C545.572 455.372 607.969 427.853 676.795 427.853C745.621 427.853 808.018 455.372 853.577 500.003Z" fill="#408E8D" stroke="white" stroke-width="15"/>
<path d="M500.016 500.004C544.651 454.448 572.171 392.056 572.171 323.236C572.171 254.415 544.651 192.023 500.016 146.468C455.381 192.023 427.861 254.415 427.861 323.236C427.861 392.056 455.381 454.448 500.016 500.004Z" fill="#FCE61E" stroke="white" stroke-width="15"/>
<path d="M500.016 853.54C544.651 807.984 572.171 745.592 572.171 676.772C572.171 607.951 544.651 545.56 500.016 500.004C455.381 545.56 427.861 607.951 427.861 676.772C427.861 745.592 455.381 807.984 500.016 853.54Z" fill="#FFB930" stroke="white" stroke-width="15"/>
<path d="M499.998 500.004C499.344 563.776 474.683 627.352 426.016 676.016C377.349 724.68 313.768 749.339 249.992 749.992C250.645 686.22 275.306 622.644 323.973 573.98C372.64 525.316 436.221 500.657 499.998 500.004Z" fill="#5D9BAC" stroke="white" stroke-width="15"/>
<path d="M750.015 250.016C749.362 313.788 724.701 377.365 676.034 426.028C627.366 474.691 563.785 499.351 500.008 500.004C500.661 436.232 525.323 372.656 573.99 323.992C622.657 275.329 686.238 250.67 750.015 250.016Z" fill="#408E8D" stroke="white" stroke-width="15"/>
<path d="M499.998 500.004C499.344 436.232 474.683 372.656 426.016 323.992C377.349 275.328 313.768 250.669 249.992 250.016C250.645 313.788 275.306 377.364 323.973 426.028C372.64 474.692 436.221 499.351 499.998 500.004Z" fill="#FCE61E" stroke="white" stroke-width="15"/>
<path d="M750.015 749.992C749.362 686.22 724.701 622.644 676.034 573.98C627.366 525.317 563.785 500.658 500.008 500.004C500.661 563.776 525.323 627.352 573.99 676.016C622.657 724.679 686.238 749.338 750.015 749.992Z" fill="#FFB930" stroke="white" stroke-width="15"/>
</svg>
