<svg width="1000" height="1000" viewBox="0 0 1000 1000" fill="none" xmlns="http://www.w3.org/2000/svg">
<path d="M500.004 500.001C454.444 544.633 392.048 572.151 323.222 572.151C254.396 572.151 191.999 544.633 146.44 500.001C191.999 455.369 254.396 427.851 323.222 427.851C392.048 427.851 454.444 455.369 500.004 500.001Z" fill="#5D9BAC" stroke="white" stroke-width="15"/>
<path d="M853.568 500.001C808.009 544.633 745.612 572.151 676.786 572.151C607.961 572.151 545.564 544.633 500.005 500.001C545.564 455.369 607.961 427.851 676.786 427.851C745.612 427.851 808.009 455.369 853.568 500.001Z" fill="#408E8D" stroke="white" stroke-width="15"/>
<path d="M500.002 500C544.636 454.444 572.157 392.052 572.157 323.232C572.157 254.411 544.636 192.02 500.002 146.464C455.367 192.02 427.846 254.411 427.846 323.232C427.846 392.052 455.367 454.444 500.002 500Z" fill="#FCE61E" stroke="white" stroke-width="15"/>
<path d="M500.002 853.535C544.636 807.979 572.157 745.588 572.157 676.767C572.157 607.947 544.636 545.555 500.002 499.999C455.367 545.555 427.846 607.947 427.846 676.767C427.846 745.588 455.367 807.979 500.002 853.535Z" fill="#FFB930" stroke="white" stroke-width="15"/>
<path d="M499.997 499.999C499.344 563.771 474.683 627.347 426.016 676.011C377.349 724.674 313.768 749.334 249.991 749.987C250.645 686.215 275.306 622.638 323.973 573.975C372.64 525.311 436.221 500.652 499.997 499.999Z" fill="#5D9BAC" stroke="white" stroke-width="15"/>
<path d="M750.008 250.014C749.355 313.786 724.694 377.362 676.027 426.026C627.359 474.689 563.778 499.348 500.001 500.001C500.655 436.23 525.316 372.653 573.983 323.99C622.65 275.326 686.231 250.667 750.008 250.014Z" fill="#408E8D" stroke="white" stroke-width="15"/>
<path d="M499.997 500C499.344 436.228 474.683 372.651 426.016 323.988C377.349 275.324 313.768 250.665 249.991 250.011C250.645 313.784 275.306 377.36 323.973 426.024C372.64 474.687 436.221 499.347 499.997 500Z" fill="#FCE61E" stroke="white" stroke-width="15"/>
<path d="M750.008 749.989C749.355 686.217 724.694 622.641 676.027 573.978C627.359 525.314 563.778 500.655 500.001 500.002C500.655 563.774 525.316 627.35 573.983 676.013C622.65 724.677 686.231 749.336 750.008 749.989Z" fill="#FFB930" stroke="white" stroke-width="15"/>
</svg>
