<svg width="1216" height="1495" viewBox="0 0 1216 1495" fill="none" xmlns="http://www.w3.org/2000/svg">
<path d="M265.17 942.961V1146H208.722V942.961H265.17ZM485.38 1146H428.932L353.764 1032.53V1146H297.316V942.961H353.764L428.932 1057.87V942.961H485.38V1146ZM670.462 942.961V987.889H616.318V1146H559.87V987.889H506.302V942.961H670.462ZM747.795 988.177V1021.3H812.595V1064.21H747.795V1100.79H821.235V1146H691.347V942.961H821.235V988.177H747.795ZM951.944 1146L911.624 1071.12H905.576V1146H849.128V942.961H938.12C954.44 942.961 968.264 945.841 979.592 951.601C990.92 957.169 999.464 964.945 1005.22 974.929C1010.98 984.721 1013.86 995.761 1013.86 1008.05C1013.86 1021.87 1010.02 1034.07 1002.34 1044.63C994.856 1054.99 983.816 1062.39 969.224 1066.8L1015.02 1146H951.944ZM905.576 1032.53H933.512C941.192 1032.53 946.952 1030.71 950.792 1027.06C954.632 1023.41 956.552 1018.13 956.552 1011.22C956.552 1004.69 954.536 999.601 950.504 995.953C946.664 992.113 941 990.193 933.512 990.193H905.576V1032.53ZM113.831 1448.02C94.8234 1448.02 77.3514 1443.6 61.4154 1434.77C45.4794 1425.75 32.8074 1413.36 23.3994 1397.62C14.1834 1381.68 9.57538 1363.73 9.57538 1343.76C9.57538 1323.79 14.1834 1305.94 23.3994 1290.19C32.8074 1274.26 45.4794 1261.87 61.4154 1253.04C77.3514 1244.21 94.8234 1239.79 113.831 1239.79C133.031 1239.79 150.503 1244.21 166.247 1253.04C182.183 1261.87 194.759 1274.26 203.975 1290.19C213.191 1305.94 217.799 1323.79 217.799 1343.76C217.799 1363.73 213.191 1381.68 203.975 1397.62C194.759 1413.36 182.183 1425.75 166.247 1434.77C150.311 1443.6 132.839 1448.02 113.831 1448.02ZM113.831 1395.6C128.231 1395.6 139.559 1390.9 147.815 1381.49C156.263 1372.08 160.487 1359.51 160.487 1343.76C160.487 1327.63 156.263 1314.96 147.815 1305.75C139.559 1296.34 128.231 1291.63 113.831 1291.63C99.2394 1291.63 87.8154 1296.34 79.5594 1305.75C71.3034 1314.96 67.1754 1327.63 67.1754 1343.76C67.1754 1359.7 71.3034 1372.37 79.5594 1381.78C87.8154 1390.99 99.2394 1395.6 113.831 1395.6ZM345.991 1446L305.671 1371.12H299.623V1446H243.175V1242.96H332.167C348.487 1242.96 362.311 1245.84 373.639 1251.6C384.967 1257.17 393.511 1264.95 399.271 1274.93C405.031 1284.72 407.911 1295.76 407.911 1308.05C407.911 1321.87 404.071 1334.07 396.391 1344.63C388.903 1354.99 377.863 1362.39 363.271 1366.8L409.063 1446H345.991ZM299.623 1332.53H327.559C335.239 1332.53 340.999 1330.71 344.839 1327.06C348.679 1323.41 350.599 1318.13 350.599 1311.22C350.599 1304.69 348.583 1299.6 344.551 1295.95C340.711 1292.11 335.047 1290.19 327.559 1290.19H299.623V1332.53ZM490.029 1242.96V1446H433.581V1242.96H490.029ZM578.623 1288.18V1321.3H643.423V1364.21H578.623V1400.79H652.063V1446H522.175V1242.96H652.063V1288.18H578.623ZM868.02 1446H811.572L736.404 1332.53V1446H679.956V1242.96H736.404L811.572 1357.87V1242.96H868.02V1446ZM1053.1 1242.96V1287.89H998.959V1446H942.511V1287.89H888.943V1242.96H1053.1ZM1130.44 1288.18V1321.3H1195.24V1364.21H1130.44V1400.79H1203.88V1446H1073.99V1242.96H1203.88V1288.18H1130.44Z" fill="#001014"/>
<path d="M608.01 501.001C562.451 545.632 500.054 573.151 431.228 573.151C362.402 573.151 300.006 545.632 254.446 501.001C300.006 456.369 362.402 428.85 431.228 428.85C500.054 428.85 562.451 456.369 608.01 501.001Z" fill="#5D9BAC" stroke="white" stroke-width="15"/>
<path d="M961.576 501C916.017 545.632 853.621 573.151 784.795 573.151C715.969 573.151 653.572 545.632 608.013 501C653.572 456.369 715.969 428.85 784.795 428.85C853.621 428.85 916.017 456.369 961.576 501Z" fill="#408E8D" stroke="white" stroke-width="15"/>
<path d="M608.016 501.001C652.65 455.445 680.171 393.053 680.171 324.233C680.171 255.412 652.65 193.021 608.016 147.465C563.381 193.021 535.86 255.412 535.86 324.233C535.86 393.053 563.381 455.445 608.016 501.001Z" fill="#FCE61E" stroke="white" stroke-width="15"/>
<path d="M608.016 854.537C652.65 808.981 680.171 746.59 680.171 677.769C680.171 608.949 652.65 546.557 608.016 501.001C563.381 546.557 535.86 608.949 535.86 677.769C535.86 746.59 563.381 808.981 608.016 854.537Z" fill="#FFB930" stroke="white" stroke-width="15"/>
<path d="M607.997 501.001C607.344 564.773 582.683 628.35 534.016 677.013C485.349 725.677 421.768 750.336 357.991 750.989C358.645 687.217 383.306 623.641 431.973 574.977C480.64 526.313 544.221 501.654 607.997 501.001Z" fill="#5D9BAC" stroke="white" stroke-width="15"/>
<path d="M858.015 251.013C857.362 314.785 832.701 378.362 784.033 427.025C735.366 475.688 671.785 500.348 608.008 501.001C608.661 437.229 633.322 373.653 681.989 324.989C730.657 276.326 794.238 251.667 858.015 251.013Z" fill="#408E8D" stroke="white" stroke-width="15"/>
<path d="M607.997 501.001C607.344 437.229 582.683 373.653 534.016 324.989C485.349 276.325 421.768 251.666 357.991 251.013C358.645 314.785 383.306 378.362 431.973 427.025C480.64 475.689 544.221 500.348 607.997 501.001Z" fill="#FCE61E" stroke="white" stroke-width="15"/>
<path d="M858.015 750.989C857.362 687.217 832.701 623.641 784.033 574.977C735.366 526.314 671.785 501.655 608.008 501.001C608.661 564.773 633.322 628.35 681.989 677.013C730.657 725.676 794.238 750.336 858.015 750.989Z" fill="#FFB930" stroke="white" stroke-width="15"/>
</svg>
